<svg width="23" height="23" viewBox="0 0 23 23" fill="none" xmlns="http://www.w3.org/2000/svg">
<g clip-path="url(#clip0_626_14)">
<path d="M15.7972 11.4767L21.6919 6.35534V16.5395L15.7972 11.4767ZM8.20142 12.344L10.2714 14.1408C10.5963 14.4168 11.0199 14.5836 11.4828 14.5836H11.499H11.4981H11.5115C11.9753 14.5836 12.3989 14.4159 12.7276 14.138L12.7248 14.1399L14.7948 12.343L21.0872 17.747H1.91188L8.20142 12.344ZM1.90325 5.14113H21.0987L11.8785 13.149C11.7749 13.231 11.6466 13.2755 11.5144 13.2755H11.501H11.5019H11.4885C11.3559 13.2756 11.2271 13.2307 11.1234 13.148L11.1243 13.149L1.90325 5.14113ZM1.30813 6.35438L7.20188 11.4757L1.30813 16.5357V6.35438ZM22.0081 4.01509C21.7781 3.90009 21.5079 3.83301 21.2213 3.83301H1.78154C1.50378 3.83307 1.22983 3.89771 0.981333 4.0218L0.991875 4.01701C0.694383 4.16374 0.44385 4.39074 0.268577 4.67236C0.0933039 4.95398 0.000275375 5.27901 0 5.61072L0 17.2755C0.000507345 17.7476 0.188267 18.2002 0.522081 18.5341C0.855895 18.8679 1.3085 19.0556 1.78058 19.0561H21.2185C21.6905 19.0556 22.1431 18.8679 22.477 18.5341C22.8108 18.2002 22.9985 17.7476 22.999 17.2755V5.61072C22.999 4.91401 22.5975 4.31026 22.0129 4.01988L22.0024 4.01509H22.0081Z" fill="#545454"/>
</g>
<defs>
<clipPath id="clip0_626_14">
<rect width="23" height="23" fill="white"/>
</clipPath>
</defs>
</svg>