<svg width="23" height="24" viewBox="0 0 23 24" fill="none" xmlns="http://www.w3.org/2000/svg">
<path d="M17.7143 4.60889H4.77955C4.04444 4.60889 3.33944 4.90091 2.81964 5.42071C2.29983 5.94051 2.00781 6.64551 2.00781 7.38063V16.6198C2.00781 17.3549 2.29983 18.0599 2.81964 18.5797C3.33944 19.0995 4.04444 19.3915 4.77955 19.3915H17.7143C18.4494 19.3915 19.1544 19.0995 19.6742 18.5797C20.1941 18.0599 20.4861 17.3549 20.4861 16.6198V7.38063C20.4861 6.64551 20.1941 5.94051 19.6742 5.42071C19.1544 4.90091 18.4494 4.60889 17.7143 4.60889ZM17.0953 6.45671L11.2469 10.8453L5.39857 6.45671H17.0953ZM17.7143 17.5437H4.77955C4.53451 17.5437 4.29951 17.4463 4.12625 17.2731C3.95298 17.0998 3.85564 16.8648 3.85564 16.6198V7.6116L10.6926 12.7393C10.8525 12.8593 11.047 12.9241 11.2469 12.9241C11.4468 12.9241 11.6414 12.8593 11.8013 12.7393L18.6382 7.6116V16.6198C18.6382 16.8648 18.5409 17.0998 18.3676 17.2731C18.1944 17.4463 17.9594 17.5437 17.7143 17.5437Z" fill="white"/>
</svg>
