<svg width="23" height="23" viewBox="0 0 23 23" fill="none" xmlns="http://www.w3.org/2000/svg">
<path d="M15.5658 20.5434C15.3158 20.5434 15.0761 20.4461 14.8994 20.2728C14.7227 20.0996 14.6234 19.8646 14.6234 19.6195V17.2173C14.6527 16.941 14.6225 16.6618 14.5349 16.3976C14.4472 16.1334 14.304 15.8902 14.1145 15.6837C13.9972 15.5589 13.9172 15.4049 13.8832 15.2385C13.8493 15.0721 13.8628 14.8998 13.9221 14.7404C13.9815 14.581 14.0845 14.4407 14.2199 14.3349C14.3552 14.2292 14.5176 14.162 14.6894 14.1407C16.9888 13.8728 19.1092 13.1521 19.1092 9.24398C19.1099 8.51416 18.8902 7.80047 18.4778 7.19289C18.0972 6.63358 17.9583 5.94918 18.0914 5.28963C18.1763 4.85939 18.1763 4.41716 18.0914 3.98691C17.3857 4.22083 16.7213 4.56055 16.1218 4.99398C16.0084 5.0729 15.8787 5.12625 15.7418 5.15021C15.605 5.17417 15.4644 5.16814 15.3302 5.13257C13.6295 4.66142 11.8289 4.66142 10.1282 5.13257C9.99398 5.16814 9.85341 5.17417 9.71655 5.15021C9.57969 5.12625 9.44993 5.0729 9.33658 4.99398C8.73339 4.55553 8.06193 4.21546 7.34813 3.98691C7.25851 4.41671 7.25851 4.85984 7.34813 5.28963C7.47167 5.95748 7.32642 6.64629 6.9429 7.21137C6.53227 7.82321 6.31282 8.53929 6.3115 9.2717C6.3115 12.8657 8.0832 13.8266 10.7407 14.1592C10.9146 14.1804 11.0791 14.2486 11.2156 14.3563C11.3521 14.4641 11.4553 14.607 11.5135 14.769C11.5683 14.9262 11.5788 15.095 11.544 15.2576C11.5092 15.4202 11.4303 15.5706 11.3156 15.6929C11.1323 15.885 10.9916 16.1122 10.9024 16.3603C10.8132 16.6084 10.7774 16.8719 10.7973 17.1342V19.6195C10.7973 19.8646 10.698 20.0996 10.5213 20.2728C10.3445 20.4461 10.1048 20.5434 9.85489 20.5434C9.60496 20.5434 9.36525 20.4461 9.18852 20.2728C9.01179 20.0996 8.9125 19.8646 8.9125 19.6195V19.0929C7.98647 19.1973 7.04848 19.0756 6.182 18.7388C5.31552 18.4019 4.54744 17.8602 3.9461 17.1619C3.637 16.826 3.26615 16.5502 2.85293 16.3489C2.73288 16.3185 2.62011 16.2653 2.52104 16.1923C2.42197 16.1192 2.33856 16.0277 2.27555 15.9231C2.21254 15.8184 2.17118 15.7026 2.15383 15.5822C2.13647 15.4619 2.14346 15.3394 2.1744 15.2217C2.20534 15.104 2.25962 14.9934 2.33415 14.8963C2.40867 14.7992 2.50197 14.7174 2.60874 14.6556C2.7155 14.5939 2.83362 14.5533 2.95637 14.5363C3.07912 14.5193 3.20408 14.5261 3.32412 14.5565C4.04906 14.8154 4.69681 15.2472 5.2089 15.813C6.1513 16.7369 7.09369 17.55 8.88423 17.2173C8.85275 16.7213 8.92655 16.2242 9.10098 15.7576C7.15965 15.2771 4.38902 13.9097 4.38902 9.29017C4.38654 8.19592 4.71444 7.12542 5.33141 6.21354C5.44601 6.04521 5.4899 5.84 5.45393 5.64072C5.2635 4.64342 5.3715 3.61341 5.76491 2.67496C5.81837 2.54983 5.89928 2.43777 6.00189 2.34676C6.1045 2.25574 6.22629 2.18799 6.35862 2.14833C6.67903 2.05594 7.82875 1.87115 10.0057 3.25702C11.7679 2.84127 13.6056 2.84127 15.3679 3.25702C17.5448 1.87115 18.6945 2.0467 19.0055 2.14833C19.1378 2.18799 19.2596 2.25574 19.3622 2.34676C19.4649 2.43777 19.5458 2.54983 19.5992 2.67496C19.9934 3.61646 20.1014 4.64964 19.9102 5.64996C19.8909 5.74009 19.8902 5.83308 19.908 5.92351C19.9258 6.01393 19.9618 6.09996 20.0139 6.17659C20.6326 7.09109 20.9606 8.16506 20.9563 9.26246C20.9563 13.9467 18.2045 15.3049 16.2443 15.7299C16.417 16.2256 16.4875 16.7501 16.4516 17.2728V19.6195C16.4521 19.8553 16.3606 20.0822 16.1959 20.254C16.0312 20.4257 15.8058 20.5293 15.5658 20.5434Z" fill="white"/>
</svg>
