<svg width="26" height="26" viewBox="0 0 26 26" fill="none" xmlns="http://www.w3.org/2000/svg">
<path d="M12.9998 22.7501C12.8572 22.751 12.7159 22.7236 12.5839 22.6697C12.4519 22.6158 12.3319 22.5364 12.2307 22.436L3.81315 14.0076C2.7573 12.9407 2.16504 11.5003 2.16504 9.99931C2.16504 8.49827 2.7573 7.05787 3.81315 5.99097C4.87727 4.92986 6.31872 4.33398 7.82149 4.33398C9.32425 4.33398 10.7657 4.92986 11.8298 5.99097L12.9998 7.16097L14.1698 5.99097C15.2339 4.92986 16.6754 4.33398 18.1782 4.33398C19.6809 4.33398 21.1224 4.92986 22.1865 5.99097C23.2423 7.05787 23.8346 8.49827 23.8346 9.99931C23.8346 11.5003 23.2423 12.9407 22.1865 14.0076L13.769 22.436C13.6678 22.5364 13.5477 22.6158 13.4157 22.6697C13.2837 22.7236 13.1424 22.751 12.9998 22.7501Z" fill="black"/>
</svg>
