<svg width="32" height="28" viewBox="0 0 32 28" fill="none" xmlns="http://www.w3.org/2000/svg">
<path d="M26.2168 6.4043H5.78345C4.67888 6.4043 3.78345 7.1878 3.78345 8.1543V19.846C3.78345 20.8125 4.67888 21.596 5.78345 21.596H26.2168C27.3214 21.596 28.2168 20.8125 28.2168 19.846V8.1543C28.2168 7.1878 27.3214 6.4043 26.2168 6.4043Z" stroke="black" stroke-linecap="round" stroke-linejoin="round"/>
<path d="M9.89194 14.6129C11.2038 14.6129 12.2673 13.6823 12.2673 12.5345C12.2673 11.3866 11.2038 10.4561 9.89194 10.4561C8.58007 10.4561 7.5166 11.3866 7.5166 12.5345C7.5166 13.6823 8.58007 14.6129 9.89194 14.6129Z" stroke="black" stroke-linecap="round" stroke-linejoin="round"/>
<path d="M19.1393 12.1621H23.8053M19.1393 16.1708H23.8053M19.1393 14.1664H25.5867M6.88532 18.1384H13.4073C13.5249 18.1386 13.64 18.1094 13.7391 18.054C13.8382 17.9987 13.917 17.9196 13.9661 17.8262C14.0153 17.7328 14.0328 17.629 14.0164 17.5271C14.0001 17.4253 13.9506 17.3297 13.874 17.2517C13.4259 16.7636 12.8584 16.3698 12.2133 16.0991C11.5681 15.8285 10.8618 15.688 10.1463 15.688C9.43086 15.688 8.72452 15.8285 8.07937 16.0991C7.43422 16.3698 6.8667 16.7636 6.41865 17.2517C6.34199 17.3297 6.29255 17.4253 6.27622 17.5271C6.25988 17.629 6.27733 17.7328 6.3265 17.8262C6.37567 17.9196 6.45448 17.9987 6.55355 18.054C6.65262 18.1094 6.76778 18.1386 6.88532 18.1384V18.1384Z" stroke="black" stroke-linecap="round" stroke-linejoin="round"/>
</svg>
