<svg width="24" height="24" viewBox="0 0 24 24" fill="none" xmlns="http://www.w3.org/2000/svg">
<path d="M15.8489 1.50488C14.8075 1.50464 13.7805 1.74835 12.8502 2.21648C11.9199 2.6846 11.1123 3.36413 10.4919 4.2006C9.87153 5.03707 9.45572 6.00723 9.2778 7.03332C9.09988 8.05942 9.16479 9.11294 9.46733 10.1094L1.76978 17.807V22.253H6.21581L13.9134 14.5555C14.8307 14.8339 15.7972 14.9113 16.7471 14.7824C17.697 14.6535 18.608 14.3214 19.4179 13.8086C20.2278 13.2958 20.9177 12.6144 21.4405 11.8109C21.9633 11.0073 22.3067 10.1005 22.4473 9.1523C22.5879 8.20405 22.5225 7.23663 22.2554 6.31596C21.9884 5.3953 21.5259 4.54303 20.8997 3.81723C20.2735 3.09144 19.4981 2.50918 18.6265 2.11014C17.7549 1.7111 16.8075 1.50466 15.8489 1.50488ZM15.8489 13.361C15.3387 13.3607 14.8313 13.2853 14.3431 13.1372L13.4932 12.8793L12.8656 13.5069L10.5084 15.8641L9.4866 14.843L8.43882 15.8908L9.46067 16.9126L8.28543 18.0878L7.26359 17.066L6.21581 18.1138L7.23765 19.1356L5.60225 20.771H3.25179V18.4205L10.5151 11.1572L11.1435 10.5296L10.8856 9.67965C10.5689 8.63557 10.5895 7.5182 10.9444 6.48649C11.2994 5.45477 11.9706 4.56125 12.8626 3.93303C13.7547 3.3048 14.8221 2.97386 15.9131 2.98729C17.0041 3.00071 18.0631 3.35781 18.9394 4.00779C19.8157 4.65777 20.4648 5.56753 20.7942 6.60767C21.1237 7.6478 21.1167 8.76534 20.7744 9.80131C20.4321 10.8373 19.7719 11.7389 18.8875 12.378C18.0032 13.0171 16.9399 13.3611 15.8489 13.361Z" fill="#545454"/>
<path d="M16.5899 8.91422C17.4084 8.91422 18.0719 8.2507 18.0719 7.43221C18.0719 6.61371 17.4084 5.9502 16.5899 5.9502C15.7714 5.9502 15.1079 6.61371 15.1079 7.43221C15.1079 8.2507 15.7714 8.91422 16.5899 8.91422Z" fill="#545454"/>
</svg>
