<svg width="28" height="26" viewBox="0 0 28 26" fill="none" xmlns="http://www.w3.org/2000/svg">
<path d="M14.0007 14.0834C14.645 14.0834 15.1673 13.5984 15.1673 13.0001C15.1673 12.4018 14.645 11.9167 14.0007 11.9167C13.3563 11.9167 12.834 12.4018 12.834 13.0001C12.834 13.5984 13.3563 14.0834 14.0007 14.0834Z" fill="black"/>
<path d="M18.6667 14.0834C19.311 14.0834 19.8333 13.5984 19.8333 13.0001C19.8333 12.4018 19.311 11.9167 18.6667 11.9167C18.0223 11.9167 17.5 12.4018 17.5 13.0001C17.5 13.5984 18.0223 14.0834 18.6667 14.0834Z" fill="black"/>
<path d="M9.33366 14.0834C9.97799 14.0834 10.5003 13.5984 10.5003 13.0001C10.5003 12.4018 9.97799 11.9167 9.33366 11.9167C8.68933 11.9167 8.16699 12.4018 8.16699 13.0001C8.16699 13.5984 8.68933 14.0834 9.33366 14.0834Z" fill="black"/>
<path d="M22.2487 5.34082C20.3345 3.55169 17.808 2.4388 15.1048 2.194C12.4016 1.94919 9.69112 2.58783 7.44066 3.99979C5.19021 5.41176 3.54079 7.50857 2.77677 9.92875C2.01276 12.3489 2.18202 14.9408 3.25538 17.2575C3.36725 17.4728 3.40396 17.7152 3.36038 17.9508L2.33372 22.5333C2.29416 22.709 2.30224 22.8911 2.35722 23.0632C2.4122 23.2352 2.51237 23.3919 2.64872 23.5191C2.76049 23.6222 2.89357 23.7031 3.03994 23.7571C3.18631 23.8111 3.34294 23.837 3.50038 23.8333H3.73372L8.72705 22.9017C8.98083 22.8733 9.23819 22.9069 9.47371 22.9992C11.9686 23.9958 14.7599 24.153 17.3662 23.4436C19.9725 22.7341 22.2306 21.2025 23.7512 19.1128C25.2718 17.0231 25.9596 14.5062 25.6959 11.9961C25.4323 9.48604 24.2338 7.14 22.307 5.36248L22.2487 5.34082ZM23.217 14.3975C22.9889 15.691 22.4479 16.9196 21.6345 17.9908C20.8212 19.062 19.7568 19.948 18.5214 20.5821C17.286 21.2161 15.9118 21.5817 14.5023 21.6514C13.0928 21.721 11.6846 21.4929 10.3837 20.9842C9.92235 20.8019 9.42673 20.7062 8.92538 20.7025C8.70637 20.7039 8.48786 20.722 8.27205 20.7567L4.98205 21.3742L5.64705 18.3192C5.77949 17.6575 5.69411 16.9742 5.40205 16.3583C4.85417 15.1504 4.60849 13.8428 4.68349 12.5339C4.75849 11.2251 5.15222 9.94904 5.83505 8.80191C6.51788 7.65477 7.47202 6.66638 8.62566 5.91114C9.7793 5.15589 11.1024 4.65346 12.4954 4.44165C13.9575 4.21883 15.4558 4.32245 16.8663 4.74397C18.2767 5.16548 19.5589 5.89276 20.6066 6.86565C21.6543 7.83854 22.4375 9.02908 22.8915 10.3388C23.3454 11.6485 23.457 13.0398 23.217 14.3975Z" fill="black"/>
</svg>
