<svg width="24" height="22" viewBox="0 0 24 22" fill="none" xmlns="http://www.w3.org/2000/svg">
<path d="M8.49967 9.83334C9.42265 9.83334 10.3249 9.55964 11.0923 9.04686C11.8598 8.53408 12.4579 7.80525 12.8111 6.95253C13.1643 6.0998 13.2567 5.16149 13.0767 4.25625C12.8966 3.351 12.4522 2.51948 11.7995 1.86684C11.1469 1.21419 10.3153 0.769735 9.4101 0.589671C8.50485 0.409606 7.56654 0.502022 6.71382 0.855231C5.8611 1.20844 5.13226 1.80658 4.61948 2.57401C4.1067 3.34144 3.83301 4.24369 3.83301 5.16667C3.83301 6.40435 4.32467 7.59133 5.19984 8.4665C6.07501 9.34167 7.262 9.83334 8.49967 9.83334Z" fill="black"/>
<path d="M17.833 12.1667C18.5252 12.1667 19.2019 11.9615 19.7775 11.5769C20.3531 11.1923 20.8017 10.6457 21.0666 10.0061C21.3315 9.3666 21.4008 8.66287 21.2658 7.98393C21.1307 7.305 20.7974 6.68136 20.3079 6.19188C19.8184 5.70239 19.1948 5.36905 18.5158 5.234C17.8369 5.09895 17.1332 5.16826 16.4936 5.43317C15.8541 5.69808 15.3074 6.14668 14.9229 6.72225C14.5383 7.29783 14.333 7.97451 14.333 8.66675C14.333 9.59501 14.7018 10.4852 15.3581 11.1416C16.0145 11.798 16.9048 12.1667 17.833 12.1667Z" fill="black"/>
<path d="M22.4997 20.3334C22.8091 20.3334 23.1058 20.2104 23.3246 19.9916C23.5434 19.7729 23.6663 19.4761 23.6663 19.1667C23.6654 18.0763 23.3589 17.008 22.7816 16.0831C22.2042 15.1581 21.3792 14.4134 20.4001 13.9336C19.421 13.4537 18.327 13.2579 17.2422 13.3684C16.1574 13.4788 15.1253 13.891 14.263 14.5584C13.1203 13.4201 11.6661 12.6457 10.0838 12.3329C8.50153 12.02 6.86205 12.1827 5.37211 12.8003C3.88216 13.418 2.60849 14.4631 1.71171 15.8037C0.814922 17.1443 0.33519 18.7205 0.333008 20.3334C0.333008 20.6428 0.455924 20.9395 0.674717 21.1583C0.893509 21.3771 1.19026 21.5 1.49967 21.5H15.4997C15.8091 21.5 16.1058 21.3771 16.3246 21.1583C16.5434 20.9395 16.6663 20.6428 16.6663 20.3334" fill="black"/>
</svg>
